<?xml version="1.0" encoding="utf-8"?>
<!-- Generator: Avocode 2.4.3-3630f5a - http://avocode.com -->
<svg height="12" width="23" xmlns:xlink="http://www.w3.org/1999/xlink" xmlns="http://www.w3.org/2000/svg" viewBox="0 0 23 12">
    <path fill="#a8b0bb" fill-rule="evenodd" d="M 23 7 C 23 7 19 7 19 7 C 19 7 19 11 19 11 C 19 11 17 11 17 11 C 17 11 17 7 17 7 C 17 7 13 7 13 7 C 13 7 13 5 13 5 C 13 5 17 5 17 5 C 17 5 17 1 17 1 C 17 1 19 1 19 1 C 19 1 19 5 19 5 C 19 5 23 5 23 5 C 23 5 23 7 23 7 Z M 10.96 11.47 C 10.88 11.62 10.66 12 10.39 12 C 10.39 12 0.61 12 0.61 12 C 0.3 12 0.05 11.77 0.01 11.47 C 0.01 11.47 0 11.47 0 11.47 C 0 11.47 0 11.45 0 11.41 C 0 11.4 0 11.4 0 11.39 C 0 11.39 0 11.39 0 11.39 C 0.03 10.78 0.31 6.33 2 6 C 3.66 5.67 3.83 6.77 5.5 6.96 C 7.17 6.77 7.34 5.67 9 6 C 10.69 6.33 10.97 10.78 11 11.39 C 11 11.39 11 11.39 11 11.39 C 11 11.39 11 11.4 11 11.4 C 11 11.44 11 11.47 11 11.47 C 11 11.47 10.96 11.47 10.96 11.47 Z M 5.5 5 C 4.12 5 3 3.88 3 2.5 C 3 1.12 4.12 0 5.5 0 C 6.88 0 8 1.12 8 2.5 C 8 3.88 6.88 5 5.5 5 Z" />
</svg>